# AST/ASF file generated using VICON BodyLanguage
# -----------------------------------------------
:version 1.10
:name VICON
:units
  mass 1.0
  length 0.45
  angle deg
:documentation
   .ast/.asf automatically generated from VICON data using
   VICON BodyBuilder and BodyLanguage model FoxedUp or BRILLIANT.MOD
:root
   order TX TY TZ RX RY RZ
   axis XYZ
   position 0 0 0  
   orientation 0 0 0 
:bonedata
  begin
     id 1 
     name lhipjoint
     direction 0.528046 -0.759594 0.379717 
     length 2.39752 
     axis 0 0 0  XYZ
  end
  begin
     id 2 
     name lfemur
     direction 0.34202 -0.939693 0  
     length 7.31175  
     axis 0 0 20  XYZ
    dof rx ry rz
    limits (-160.0 20.0)
           (-70.0 70.0)
           (-60.0 70.0)
  end
  begin
     id 3 
     name ltibia
     direction 0.34202 -0.939693 0   
     length 7.52482   
     axis 0 0 20   XYZ
    dof rx
    limits (-10.0 170.0)
  end
  begin
     id 4 
     name lfoot
     direction 0.0675379 -0.185559 0.980309   
     length 2.00961   
     axis -90 7.62852e-016 20   XYZ
    dof rx rz
    limits (-45.0 90.0)
           (-70.0 20.0)
  end
  begin
     id 5 
     name ltoes
     direction 1.5352e-011 -4.22286e-011 1   
     length 1.01383   
     axis -90 7.62852e-016 20   XYZ
    dof rx
    limits (-90.0 20.0)
  end
  begin
     id 6 
     name rhipjoint
     direction -0.510274 -0.769251 0.384544   
     length 2.36742  
     axis 0 0 0  XYZ 
  end
  begin
     id 7 
     name rfemur
     direction -0.34202 -0.939693 0   
     length 7.45325   
     axis 0 0 -20   XYZ
    dof rx ry rz
    limits (-160.0 20.0)
           (-70.0 70.0)
           (-70.0 60.0)
  end
  begin
     id 8 
     name rtibia
     direction -0.34202 -0.939693 0   
     length 7.49587   
     axis 0 0 -20   XYZ
    dof rx
    limits (-10.0 170.0)
 end
 begin
     id 9 
     name rfoot
     direction -0.106475 -0.292536 0.950308   
     length 2.20898  
     axis -90 -7.62852e-016 -20   XYZ
    dof rx rz
    limits (-45.0 90.0)
           (-20.0 70.0)
  end
  begin
     id 10 
     name rtoes
     direction -1.53597e-011 -4.22023e-011 1   
     length 1.10065   
     axis -90 -7.62852e-016 -20   XYZ
    dof rx
    limits (-90.0 20.0)
  end
  begin
     id 11 
     name lowerback
     direction 0.0260024 0.998026 -0.0571652   
     length 2.11214   
     axis 0 0 0   XYZ
    dof rx ry rz
    limits (-20.0 45.0)
           (-30.0 30.0)
           (-30.0 30.0)
  end
  begin
     id 12 
     name upperback
     direction 0.0216202 0.999542 -0.0211766   
     length 2.11689   
     axis 0 0 0   XYZ
    dof rx ry rz
    limits (-20.0 45.0)
           (-30.0 30.0)
           (-30.0 30.0)
  end
  begin
     id 13 
     name thorax
     direction 0.00883312 0.999944 0.00589057   
     length 2.11821   
     axis 0 0 0   XYZ
    dof rx ry rz
    limits (-20.0 45.0)
           (-30.0 30.0)
           (-30.0 30.0)
  end
  begin
     id 14 
     name lowerneck
     direction -0.059386 0.994433 0.0870401   
     length 1.81176   
     axis 0 0 0   XYZ
    dof rx ry rz
    limits (-20.0 45.0)
           (-30.0 30.0)
           (-30.0 30.0)
  end
  begin
     id 15 
     name upperneck
     direction 0.0506457 0.97328 -0.223967   
     length 1.82382   
     axis 0 0 0   XYZ
    dof rx ry rz
    limits (-20.0 45.0)
           (-30.0 30.0)
           (-30.0 30.0)
  end
  begin
     id 16
     name head
     direction 0.0205902 0.996147 -0.0852487  
     length 1.84805  
     axis 0 0 0   XYZ
    dof rx ry rz
    limits (-20.0 45.0)
           (-30.0 30.0)
           (-30.0 30.0)
  end
  begin
     id 17 
     name lclavicle
     direction 0.949493 0.303881 -0.0782325  
     length 3.60584  
     axis 0 0 0   XYZ
    dof ry rz
    limits (-20.0 10.0)
           (0.0 20.0)
  end
  begin
     id 18 
     name lhumerus
     direction 1 -4.48965e-011 1.48782e-027   
     length 4.95681   
     axis 180 -30 -90   XYZ
    dof rx ry rz
    limits (-60.0 90.0)
           (-90.0 90.0)
           (-90.0 90.0)
  end
  begin
     id 19
     name lradius
     direction 1 -4.48952e-011 2.06528e-027   
     length 3.40915   
     axis 180 -30 -90   XYZ
    dof rx
    limits (-10.0 170.0)
  end
  begin
     id 20
     name lwrist
     direction 1 -4.48964e-011 1.28021e-027   
     length 1.70457   
     axis -1.61767e-015 90 90   XYZ
    dof ry
    limits (-180.0 0.0)
 end
  begin
     id 21 
     name lhand
     direction 1 -4.49094e-011 2.54887e-027   
     length 0.616403   
     axis -1.63363e-015 90 90   XYZ
    dof rx rz
    limits (-90.0 90.0)
           (-45.0 45.0)
  end
  begin
     id 22 
     name lfingers
     direction 1 -4.49002e-011 5.11407e-027   
     length 0.49696   
     axis -3.26723e-015 90 90   XYZ
    dof rx
    limits (0.0 90.0)
  end
  begin
     id 23
     name lthumb
     direction 0.707107 -6.34998e-011 0.707107   
     length 0.713539   
     axis -90 45 -2.25915e-014   XYZ
    dof rx rz
    limits (-45.0 45.0)
           (-45.0 45.0)
  end
  begin
     id 24 
     name rclavicle
     direction -0.937751 0.334612 -0.0930482   
     length 3.46287  
     axis 0 0 0   XYZ 
    dof ry rz
    limits (-10.0 20.0)
           (-20.0 0.0)
  end
  begin
     id 25 
     name rhumerus
     direction -1 -4.48962e-011 3.59972e-027  
     length 5.352   
     axis 180 30 90   XYZ
    dof rx ry rz
    limits (-90.0 60.0)
           (-90.0 90.0)
           (-90.0 90.0)
  end
  begin
     id 26 
     name rradius
     direction -1 -4.48987e-011 -3.76925e-027   
     length 3.43721   
     axis 180 30 90   XYZ
    dof rx
    limits (-10.0 170.0)
  end
  begin
     id 27 
     name rwrist
     direction -1 -4.48943e-011 1.28112e-027   
     length 1.7186   
     axis -1.61767e-015 -90 -90   XYZ
    dof ry
    limits (-180.0 0.0)
  end
  begin
     id 28
     name rhand
     direction -1 -4.49027e-011 2.55483e-027   
     length 0.72009   
     axis -1.63363e-015 -90 -90   XYZ
    dof rx rz
    limits (-90.0 90.0)
           (-45.0 45.0)
  end
  begin
     id 29
     name rfingers
     direction -1 -4.48827e-011 5.14506e-027   
     length 0.580555   
     axis -3.26723e-015 -90 -90   XYZ
    dof rx
    limits (0.0 90.0)
  end
  begin
     id 30
     name rthumb
     direction -0.707107 -6.34936e-011 0.707107   
     length 0.833564   
     axis -90 -45 2.25915e-014   XYZ
    dof rx rz
    limits (-45.0 45.0)
           (-45.0 45.0)
  end
:hierarchy
  begin
    root lhipjoint rhipjoint lowerback
    lhipjoint lfemur
    lfemur ltibia
    ltibia lfoot
    lfoot ltoes
    rhipjoint rfemur
    rfemur rtibia
    rtibia rfoot
    rfoot rtoes
    lowerback upperback
    upperback thorax
    thorax lowerneck lclavicle rclavicle
    lowerneck upperneck
    upperneck head
    lclavicle lhumerus
    lhumerus lradius
    lradius lwrist
    lwrist lhand lthumb
    lhand lfingers
    rclavicle rhumerus
    rhumerus rradius
    rradius rwrist
    rwrist rhand rthumb
    rhand rfingers
  end

#!OML:ASF H:\Terrain\Patient Classification 1\Terrain2\Thursday\justin.ASF
:FULLY-SPECIFIED
:DEGREES
531
root 19.8513 21.0318 -3.85173 -0.947107 -4.04861 -2.34835
lowerback 7.08766 1.7497 1.27196
upperback 2.67575 2.44757 2.23861
thorax -1.25543 1.21745 1.39291
lowerneck -11.6739 -3.43825 -10.0719
upperneck 36.0694 -4.68797 6.35682
head 14.8645 -2.54036 3.69857
rclavicle -1.32689e-014 -1.86858e-014
rhumerus -32.137 -13.846 -76.1849
rradius 28.9923
rwrist -7.52406
rhand -18.1326 11.6108
rfingers 7.12502
rthumb 8.14234 -18.2124
lclavicle -1.32689e-014 -1.86858e-014
lhumerus -36.5563 10.6752 81.3255
lradius 29.4325
lwrist 3.48791
lhand -17.867 21.5542
lfingers 7.12502
lthumb 8.39871 51.3672
rfemur -4.26535 -4.92597 18.6459
rtibia 60.871
rfoot 9.69327 -0.633444
rtoes 7.15382
lfemur -12.2099 7.51201 -20.3066
ltibia 20.1672
lfoot -4.50617 -9.90381
ltoes 10.9336
532
root 19.8525 21.0367 -3.75757 -0.981076 -3.6771 -2.25952
lowerback 7.09527 1.54126 0.984255
upperback 2.67037 2.15253 2.27194
thorax -1.27241 1.06917 1.61195
lowerneck -11.7489 -3.37758 -10.1242
upperneck 36.1713 -4.56985 6.32484
head 14.9182 -2.50319 3.71662
rclavicle -1.23246e-014 7.15625e-015
rhumerus -31.9929 -13.6295 -76.4103
rradius 28.9226
rwrist -7.76502
rhand -18.4225 12.0614
rfingers 7.12502
rthumb 7.86254 -17.7724
lclavicle -1.23246e-014 7.15625e-015
lhumerus -35.9626 10.4568 81.476
lradius 29.363
lwrist 3.06033
lhand -17.7 21.7992
lfingers 7.12502
lthumb 8.55987 51.6057
rfemur -6.00992 -5.23664 18.5122
rtibia 63.8887
rfoot 8.36951 -1.83633
rtoes 11.421
lfemur -11.4227 7.33737 -20.4012
ltibia 19.373
lfoot -4.20161 -10.0657
ltoes 12.4678
533
root 19.8364 21.0521 -3.69532 -0.83367 -2.56296 -1.79038
lowerback 7.29996 1.17421 0.111944
upperback 2.50386 1.61233 2.21903
thorax -1.56802 0.798764 2.08536
lowerneck -11.832 -3.3604 -10.1527
upperneck 36.2851 -4.5609 6.39666
head 14.9941 -2.4959 3.7579
rclavicle -1.64494e-014 -2.0276e-014
rhumerus -31.9691 -13.7456 -76.4624
rradius 28.9924
rwrist -7.49579
rhand -18.1883 12.1813
rfingers 7.12502
rthumb 8.08863 -17.6439
lclavicle -1.64494e-014 -2.0276e-014
lhumerus -35.3082 10.3494 81.5162
lradius 29.2728
lwrist 2.44757
lhand -17.3078 21.0522
lfingers 7.12502
lthumb 8.93829 50.8428
rfemur -8.11557 -6.36306 18.1363
rtibia 66.8322
rfoot 6.98486 -2.73759
rtoes 10.9927
lfemur -11.1561 7.62558 -20.9612
ltibia 18.6618
lfoot -3.57464 -11.3586
ltoes 13.2178
534
root 19.8539 21.067 -3.57475 -1.26648 -2.7503 -1.38486
lowerback 7.3411 1.22175 -0.166126
upperback 2.70343 1.64892 2.03557
thorax -1.38884 0.815094 2.05076
lowerneck -11.8766 -3.35437 -10.1515
upperneck 36.3764 -4.59358 6.50751
head 15.0551 -2.49698 3.80348
rclavicle -7.65321e-015 -2.34566e-014
rhumerus -31.9792 -14.1345 -76.472
rradius 29.0946
rwrist -7.30851
rhand -18.1426 12.1159
rfingers 7.12502
rthumb 8.13272 -17.7076
lclavicle -7.65321e-015 -2.34566e-014
lhumerus -34.7348 9.72914 81.6966
lradius 29.3571
lwrist 2.96541
lhand -17.7174 19.7228
lfingers 7.12502
lthumb 8.54307 49.5299
rfemur -9.54313 -6.51334 17.4949
rtibia 69.5663
rfoot 5.66901 -2.91522
rtoes 6.83941
lfemur -9.87946 7.67593 -21.4163
ltibia 17.996
lfoot -3.92168 -11.1295
ltoes 11.2175
535
root 19.8637 21.0832 -3.46383 -1.48583 -2.58163 -1.44629
lowerback 7.33499 1.08543 -0.107856
upperback 2.7884 1.4707 2.06226
thorax -1.2904 0.725353 2.06184
lowerneck -11.9106 -3.29424 -10.1659
upperneck 36.496 -4.49462 6.48606
head 15.1091 -2.46231 3.81754
rclavicle -2.18663e-015 1.35174e-014
rhumerus -31.9603 -14.103 -76.6112
rradius 29.2366
rwrist -7.64762
rhand -18.5698 12.1235
rfingers 7.12502
rthumb 7.72039 -17.7156
lclavicle -2.18663e-015 1.35174e-014
lhumerus -34.4264 9.0604 81.9245
lradius 29.6687
lwrist 3.91422
lhand -18.6344 18.8118
lfingers 7.12502
lthumb 7.65807 48.6531
rfemur -11.173 -6.9657 17.4361
rtibia 72.2169
rfoot 4.48316 -3.26513
rtoes 5.42244
lfemur -8.85601 7.67535 -21.3688
ltibia 17.279
lfoot -4.24828 -11.2413
ltoes 9.07768
536
root 19.868 21.0965 -3.36326 -1.60195 -2.32663 -1.4653
lowerback 7.39074 0.914504 -0.231243
upperback 2.78476 1.23661 2.11611
thorax -1.31993 0.607995 2.20587
lowerneck -11.9017 -3.19616 -10.2113
upperneck 36.553 -4.32925 6.45827
head 15.1155 -2.40417 3.84285
rclavicle -4.42296e-015 -1.31198e-014
rhumerus -31.953 -13.7529 -76.8325
rradius 29.512
rwrist -8.16703
rhand -18.7751 11.9854
rfingers 7.12502
rthumb 7.5222 -17.8608
lclavicle -4.42296e-015 -1.31198e-014
lhumerus -34.0139 9.11662 81.8303
lradius 29.8368
lwrist 3.19463
lhand -18.2424 18.8112
lfingers 7.12502
lthumb 8.03639 48.6384
rfemur -12.9538 -7.51259 17.3808
rtibia 74.7843
rfoot 3.52341 -3.51911
rtoes 5.22409
lfemur -8.01082 7.71842 -21.3738
ltibia 16.5339
lfoot -4.29216 -11.407
ltoes 8.18859
537
root 19.8721 21.1083 -3.27174 -1.78039 -2.07628 -1.21986
lowerback 7.66514 0.766419 -0.612184
upperback 2.72586 1.01453 2.07296
thorax -1.52909 0.497718 2.39158
lowerneck -11.8712 -3.10953 -10.0704
upperneck 36.6714 -4.15187 6.19705
head 15.1338 -2.34705 3.73819
rclavicle -5.06901e-015 -1.27222e-014
rhumerus -32.0088 -13.576 -76.964
rradius 29.7566
rwrist -8.3153
rhand -18.7039 11.5222
rfingers 7.12502
rthumb 7.59093 -18.3216
lclavicle -5.06901e-015 -1.27222e-014
lhumerus -33.5823 9.30974 81.6482
lradius 29.9441
lwrist 2.24198
lhand -17.308 19.0718
lfingers 7.12502
lthumb 8.93817 48.8625
rfemur -14.7181 -7.99528 17.1017
rtibia 77.254
rfoot 2.59871 -3.58913
rtoes 3.96092
lfemur -7.17781 7.55993 -21.6616
ltibia 15.8611
lfoot -4.05575 -11.3081
ltoes 8.61416
538
root 19.8765 21.1176 -3.17666 -1.93061 -1.79979 -0.871329
lowerback 7.80796 0.588057 -1.14688
upperback 2.6902 0.737959 2.04605
thorax -1.63779 0.359793 2.68921
lowerneck -11.9701 -3.04033 -9.88487
upperneck 36.964 -3.98066 5.86391
head 15.2674 -2.29812 3.59958
rclavicle -8.59744e-015 -4.77083e-015
rhumerus -32.0267 -13.2929 -77.067
rradius 29.8724
rwrist -8.481
rhand -18.7376 11.1068
rfingers 7.12502
rthumb 7.55847 -18.7381
lclavicle -8.59744e-015 -4.77083e-015
lhumerus -33.4189 8.96358 81.7998
lradius 30.3613
lwrist 2.9208
lhand -17.462 19.0736
lfingers 7.12502
lthumb 8.78951 48.8706
rfemur -16.4482 -8.47505 16.6787
rtibia 79.6015
rfoot 1.54452 -3.57376
rtoes 3.48496
lfemur -6.38361 7.31504 -22.0592
ltibia 15.2515
lfoot -3.98402 -11.2037
ltoes 8.95229
539
root 19.8832 21.1161 -3.08004 -2.15366 -1.6299 -0.767316
lowerback 7.90661 0.510222 -1.25354
upperback 2.78893 0.623971 1.99305
thorax -1.58457 0.301329 2.70484
lowerneck -12.1175 -3.04772 -9.82089
upperneck 37.1137 -4.01937 5.9095
head 15.3795 -2.30145 3.60685
rclavicle 5.36719e-015 -1.19271e-015
rhumerus -32.0127 -13.3092 -77.2081
rradius 30.0811
rwrist -8.66811
rhand -18.8386 10.8903
rfingers 7.12502
rthumb 7.4609 -18.9581
lclavicle 5.36719e-015 -1.19271e-015
lhumerus -32.9601 8.39967 81.9559
lradius 30.7661
lwrist 3.58192
lhand -17.9971 19.1968
lfingers 7.12502
lthumb 8.2731 49.0149
rfemur -18.017 -8.83887 16.4317
rtibia 81.8075
rfoot 0.278891 -3.49592
rtoes 5.58358
lfemur -5.43985 7.11619 -22.1667
ltibia 14.5831
lfoot -3.98662 -11.1271
ltoes 9.6971
540
root 19.8901 21.1201 -2.98998 -2.46779 -1.54735 -0.95246
lowerback 8.22303 0.459723 -0.983822
upperback 2.89768 0.575401 1.97658
thorax -1.6421 0.277335 2.5391
lowerneck -12.2522 -3.05081 -9.78381
upperneck 37.1212 -4.05148 5.9889
head 15.4191 -2.29819 3.6294
rclavicle 6.41081e-015 1.63003e-014
rhumerus -32.0173 -13.3862 -77.365
rradius 30.4329
rwrist -8.72845
rhand -19.0568 10.776
rfingers 7.12502
rthumb 7.25031 -19.0798
lclavicle 6.41081e-015 1.63003e-014
lhumerus -32.2904 8.17371 81.8876
lradius 31.0486
lwrist 3.22768
lhand -17.9175 20.2168
lfingers 7.12502
lthumb 8.35 50.0317
rfemur -19.5695 -9.14362 16.5882
rtibia 83.8931
rfoot -0.842595 -3.29204
rtoes 6.18175
lfemur -4.35197 6.90825 -21.9367
ltibia 13.8203
lfoot -3.8038 -10.935
ltoes 10.1512
541
root 19.8963 21.1329 -2.89751 -2.6612 -1.3842 -0.919854
lowerback 8.37125 0.290413 -1.1161
upperback 2.95833 0.340053 2.02236
thorax -1.64992 0.15885 2.68375
lowerneck -12.3415 -2.97997 -9.75648
upperneck 37.1087 -3.86754 5.78189
head 15.4079 -2.24368 3.56381
rclavicle -6.4605e-016 -1.47101e-014
rhumerus -31.9019 -13.083 -77.4851
rradius 30.6351
rwrist -8.88316
rhand -19.3769 11.2113
rfingers 7.12502
rthumb 6.94138 -18.6549
lclavicle -6.4605e-016 -1.47101e-014
lhumerus -31.861 8.00435 81.9177
lradius 31.5759
lwrist 2.98307
lhand -17.1097 22.2257
lfingers 7.12502
lthumb 9.12945 52.0081
rfemur -21.3017 -9.70502 16.5499
rtibia 85.8946
rfoot -1.78062 -2.87441
rtoes 4.15044
lfemur -3.34572 6.6605 -21.9728
ltibia 12.9765
lfoot -3.49632 -10.7102
ltoes 10.9886
542
root 19.9012 21.139 -2.80334 -2.75965 -1.14461 -0.463223
lowerback 8.37854 0.151205 -1.68049
upperback 2.97533 0.107747 1.9321
thorax -1.62352 0.0410708 2.93153
lowerneck -12.2766 -2.92761 -9.70809
upperneck 37.0821 -3.74641 5.60931
head 15.3606 -2.20977 3.49893
rclavicle -2.98177e-016 7.95139e-015
rhumerus -31.8721 -12.8638 -77.5737
rradius 30.8263
rwrist -9.16379
rhand -19.4002 11.6511
rfingers 7.12502
rthumb 6.91883 -18.2158
lclavicle -2.98177e-016 7.95139e-015
lhumerus -31.4819 7.88577 81.8304
lradius 32.1317
lwrist 2.2736
lhand -15.174 24.5676
lfingers 7.12502
lthumb 10.9969 54.2595
rfemur -23.1524 -10.3359 15.9968
rtibia 87.8106
rfoot -2.89252 -2.30969
rtoes 3.96232
lfemur -2.42454 6.55181 -22.489
ltibia 12.0759
lfoot -3.10015 -10.6665
ltoes 12.832
543
root 19.9026 21.1459 -2.71383 -2.84578 -1.00624 -0.12266
lowerback 8.55491 0.0930113 -2.08434
upperback 2.91943 -0.00697042 1.80293
thorax -1.77077 -0.0141416 3.03794
lowerneck -12.2915 -2.87848 -9.60596
upperneck 37.1821 -3.7172 5.63843
head 15.407 -2.18213 3.50168
rclavicle 9.93923e-017 1.98785e-015
rhumerus -32.0227 -12.7081 -77.7017
rradius 31.1837
rwrist -9.50552
rhand -19.1097 11.7363
rfingers 7.12502
rthumb 7.19925 -18.1213
lclavicle 9.93923e-017 1.98785e-015
lhumerus -31.1431 7.8581 81.5899
lradius 32.259
lwrist 1.98656
lhand -14.6508 24.2911
lfingers 7.12502
lthumb 11.5015 53.9556
rfemur -25.1076 -10.7602 15.6884
rtibia 89.6028
rfoot -4.00681 -1.88339
rtoes 3.51528
lfemur -1.54043 6.52627 -22.8579
ltibia 11.1542
lfoot -2.7832 -10.647
ltoes 13.4232
544
root 19.903 21.1514 -2.62603 -2.87453 -0.942558 -0.0587024
lowerback 8.68546 0.00925889 -2.26884
upperback 2.83167 -0.13522 1.8068
thorax -1.92409 -0.0750321 3.1604
lowerneck -12.3239 -2.79255 -9.62965
upperneck 37.2981 -3.61504 5.72028
head 15.4626 -2.13484 3.56267
rclavicle -8.89561e-015 9.54166e-015
rhumerus -32.2031 -12.4295 -77.7559
rradius 31.5006
rwrist -9.6745
rhand -18.9688 12.179
rfingers 7.12502
rthumb 7.33527 -17.6738
lclavicle -8.89561e-015 9.54166e-015
lhumerus -31.0293 7.22166 81.7903
lradius 32.1901
lwrist 4.58592
lhand -17.3446 20.9506
lfingers 7.12502
lthumb 8.90282 50.7428
rfemur -27.0572 -11.0784 15.772
rtibia 91.2449
rfoot -5.28348 -1.63276
rtoes 2.18046
lfemur -0.700362 6.44059 -22.9238
ltibia 10.1757
lfoot -2.54727 -10.548
ltoes 13.0766
